<svg xmlns="http://www.w3.org/2000/svg" version="1.1" xmlns:xlink="http://www.w3.org/1999/xlink" xmlns:svgjs="http://svgjs.com/svgjs" width="1440" height="560" preserveAspectRatio="none" viewBox="0 0 1440 560">
    <g mask="url(&quot;#SvgjsMask1009&quot;)" fill="none">
        <rect width="1440" height="560" x="0" y="0" fill="rgba(198, 46, 45, 1)"></rect>
        <path d="M 0,19 C 57.6,47 172.8,141.2 288,159 C 403.2,176.8 460.8,95.8 576,108 C 691.2,120.2 748.8,227.4 864,220 C 979.2,212.6 1036.8,60.8 1152,71 C 1267.2,81.2 1382.4,231 1440,271L1440 560L0 560z" fill="rgba(216, 86, 86, 1)"></path>
        <path d="M 0,319 C 96,352.4 288,491.6 480,486 C 672,480.4 768,289.2 960,291 C 1152,292.8 1344,454.2 1440,495L1440 560L0 560z" fill="rgba(228, 137, 136, 1)"></path>
    </g>
    <defs>
        <mask id="SvgjsMask1009">
            <rect width="1440" height="560" fill="#ffffff"></rect>
        </mask>
    </defs>
</svg>